<svg width="24" height="24" viewBox="0 0 24 24" fill="none" xmlns="http://www.w3.org/2000/svg">
<path fill-rule="evenodd" clip-rule="evenodd" d="M6 6C6 5.44772 6.44772 5 7 5H13C14.0609 5 15.0783 5.42143 15.8284 6.17157C16.5786 6.92172 17 7.93913 17 9C17 10.0609 16.5786 11.0783 15.8284 11.8284C15.0783 12.5786 14.0609 13 13 13H7C6.44772 13 6 12.5523 6 12V6ZM8 7V11H13C13.5304 11 14.0391 10.7893 14.4142 10.4142C14.7893 10.0391 15 9.53043 15 9C15 8.46957 14.7893 7.96086 14.4142 7.58579C14.0391 7.21071 13.5304 7 13 7H8Z" fill="#697586"/>
<path fill-rule="evenodd" clip-rule="evenodd" d="M5.75 6C5.75 5.30964 6.30964 4.75 7 4.75H13C14.1272 4.75 15.2082 5.19777 16.0052 5.9948C16.8022 6.79183 17.25 7.87283 17.25 9C17.25 10.1272 16.8022 11.2082 16.0052 12.0052C15.2082 12.8022 14.1272 13.25 13 13.25H7C6.30964 13.25 5.75 12.6904 5.75 12V6ZM7 5.25C6.58579 5.25 6.25 5.58579 6.25 6V12C6.25 12.4142 6.58579 12.75 7 12.75H13C13.9946 12.75 14.9484 12.3549 15.6516 11.6517C16.3549 10.9484 16.75 9.99456 16.75 9C16.75 8.00544 16.3549 7.05161 15.6516 6.34835C14.9484 5.64509 13.9946 5.25 13 5.25H7ZM7.75 7C7.75 6.86193 7.86193 6.75 8 6.75H13C13.5967 6.75 14.169 6.98705 14.591 7.40901C15.0129 7.83097 15.25 8.40326 15.25 9C15.25 9.59674 15.0129 10.169 14.591 10.591C14.169 11.0129 13.5967 11.25 13 11.25H8C7.86193 11.25 7.75 11.1381 7.75 11V7ZM8.25 7.25V10.75H13C13.4641 10.75 13.9092 10.5656 14.2374 10.2374C14.5656 9.90925 14.75 9.46413 14.75 9C14.75 8.53587 14.5656 8.09075 14.2374 7.76256C13.9092 7.43437 13.4641 7.25 13 7.25H8.25Z" fill="#697586"/>
<path fill-rule="evenodd" clip-rule="evenodd" d="M6 12C6 11.4477 6.44772 11 7 11H13.75C14.8109 11 15.8283 11.4214 16.5784 12.1716C17.3286 12.9217 17.75 13.9391 17.75 15C17.75 16.0609 17.3286 17.0783 16.5784 17.8284C15.8283 18.5786 14.8109 19 13.75 19H7C6.44772 19 6 18.5523 6 18V12ZM8 13V17H13.75C14.2804 17 14.7891 16.7893 15.1642 16.4142C15.5393 16.0391 15.75 15.5304 15.75 15C15.75 14.4696 15.5393 13.9609 15.1642 13.5858C14.7891 13.2107 14.2804 13 13.75 13H8Z" fill="#697586"/>
<path fill-rule="evenodd" clip-rule="evenodd" d="M5.75 12C5.75 11.3096 6.30964 10.75 7 10.75H13.75C14.8772 10.75 15.9582 11.1978 16.7552 11.9948C17.5522 12.7918 18 13.8728 18 15C18 16.1272 17.5522 17.2082 16.7552 18.0052C15.9582 18.8022 14.8772 19.25 13.75 19.25H7C6.30964 19.25 5.75 18.6904 5.75 18V12ZM7 11.25C6.58579 11.25 6.25 11.5858 6.25 12V18C6.25 18.4142 6.58579 18.75 7 18.75H13.75C14.7446 18.75 15.6984 18.3549 16.4016 17.6516C17.1049 16.9484 17.5 15.9946 17.5 15C17.5 14.0054 17.1049 13.0516 16.4016 12.3483C15.6984 11.6451 14.7446 11.25 13.75 11.25H7ZM7.75 13C7.75 12.8619 7.86193 12.75 8 12.75H13.75C14.3467 12.75 14.919 12.9871 15.341 13.409C15.7629 13.831 16 14.4033 16 15C16 15.5967 15.7629 16.169 15.341 16.591C14.919 17.0129 14.3467 17.25 13.75 17.25H8C7.86193 17.25 7.75 17.1381 7.75 17V13ZM8.25 13.25V16.75H13.75C14.2141 16.75 14.6592 16.5656 14.9874 16.2374C15.3156 15.9092 15.5 15.4641 15.5 15C15.5 14.5359 15.3156 14.0908 14.9874 13.7626C14.6592 13.4344 14.2141 13.25 13.75 13.25H8.25Z" fill="#697586"/>
</svg>
