<svg width="24" height="24" viewBox="0 0 24 24" fill="none" xmlns="http://www.w3.org/2000/svg">
<path fill-rule="evenodd" clip-rule="evenodd" d="M6.4 5.6C5.95817 5.6 5.6 5.95817 5.6 6.4V17.6C5.6 18.0418 5.95817 18.4 6.4 18.4H17.6C18.0418 18.4 18.4 18.0418 18.4 17.6V6.4C18.4 5.95817 18.0418 5.6 17.6 5.6H6.4ZM4 6.4C4 5.07452 5.07452 4 6.4 4H17.6C18.9255 4 20 5.07452 20 6.4V17.6C20 18.9255 18.9255 20 17.6 20H6.4C5.07452 20 4 18.9255 4 17.6V6.4Z" fill="#697586"/>
<path fill-rule="evenodd" clip-rule="evenodd" d="M3.75 6.4C3.75 4.93645 4.93645 3.75 6.4 3.75H17.6C19.0636 3.75 20.25 4.93645 20.25 6.4V17.6C20.25 19.0636 19.0636 20.25 17.6 20.25H6.4C4.93645 20.25 3.75 19.0636 3.75 17.6V6.4ZM6.4 4.25C5.21259 4.25 4.25 5.21259 4.25 6.4V17.6C4.25 18.7874 5.21259 19.75 6.4 19.75H17.6C18.7874 19.75 19.75 18.7874 19.75 17.6V6.4C19.75 5.21259 18.7874 4.25 17.6 4.25H6.4ZM6.4 5.85C6.09624 5.85 5.85 6.09624 5.85 6.4V17.6C5.85 17.9038 6.09624 18.15 6.4 18.15H17.6C17.9038 18.15 18.15 17.9038 18.15 17.6V6.4C18.15 6.09624 17.9038 5.85 17.6 5.85H6.4ZM5.35 6.4C5.35 5.8201 5.8201 5.35 6.4 5.35H17.6C18.1799 5.35 18.65 5.8201 18.65 6.4V17.6C18.65 18.1799 18.1799 18.65 17.6 18.65H6.4C5.8201 18.65 5.35 18.1799 5.35 17.6V6.4Z" fill="#697586"/>
<path fill-rule="evenodd" clip-rule="evenodd" d="M9.20038 8.79922C8.97946 8.79922 8.80038 8.9783 8.80038 9.19922C8.80038 9.42013 8.97946 9.59922 9.20038 9.59922C9.42129 9.59922 9.60038 9.42013 9.60038 9.19922C9.60038 8.9783 9.42129 8.79922 9.20038 8.79922ZM7.20038 9.19922C7.20038 8.09465 8.09581 7.19922 9.20038 7.19922C10.3049 7.19922 11.2004 8.09465 11.2004 9.19922C11.2004 10.3038 10.3049 11.1992 9.20038 11.1992C8.09581 11.1992 7.20038 10.3038 7.20038 9.19922Z" fill="#697586"/>
<path fill-rule="evenodd" clip-rule="evenodd" d="M6.95038 9.19922C6.95038 7.95658 7.95774 6.94922 9.20038 6.94922C10.443 6.94922 11.4504 7.95658 11.4504 9.19922C11.4504 10.4419 10.443 11.4492 9.20038 11.4492C7.95774 11.4492 6.95038 10.4419 6.95038 9.19922ZM9.20038 7.44922C8.23388 7.44922 7.45038 8.23272 7.45038 9.19922C7.45038 10.1657 8.23388 10.9492 9.20038 10.9492C10.1669 10.9492 10.9504 10.1657 10.9504 9.19922C10.9504 8.23272 10.1669 7.44922 9.20038 7.44922ZM9.20038 9.04922C9.11754 9.04922 9.05038 9.11638 9.05038 9.19922C9.05038 9.28206 9.11754 9.34922 9.20038 9.34922C9.28322 9.34922 9.35038 9.28206 9.35038 9.19922C9.35038 9.11638 9.28322 9.04922 9.20038 9.04922ZM8.55038 9.19922C8.55038 8.84023 8.84139 8.54922 9.20038 8.54922C9.55936 8.54922 9.85038 8.84023 9.85038 9.19922C9.85038 9.5582 9.55936 9.84922 9.20038 9.84922C8.84139 9.84922 8.55038 9.5582 8.55038 9.19922Z" fill="#697586"/>
<path fill-rule="evenodd" clip-rule="evenodd" d="M14.6349 9.83392C14.9473 9.5215 15.4539 9.5215 15.7663 9.83392L19.7663 13.8339C20.0787 14.1463 20.0787 14.6529 19.7663 14.9653C19.4539 15.2777 18.9473 15.2777 18.6349 14.9653L15.2006 11.531L6.96627 19.7653C6.65385 20.0777 6.14732 20.0777 5.8349 19.7653C5.52248 19.4529 5.52248 18.9463 5.8349 18.6339L14.6349 9.83392Z" fill="#697586"/>
<path fill-rule="evenodd" clip-rule="evenodd" d="M14.4581 9.65715C14.8682 9.2471 15.533 9.2471 15.943 9.65715L19.943 13.6571C20.3531 14.0672 20.3531 14.732 19.943 15.1421C19.533 15.5521 18.8682 15.5521 18.4581 15.1421L15.2006 11.8845L7.14305 19.9421C6.733 20.3521 6.06817 20.3521 5.65812 19.9421C5.24807 19.532 5.24807 18.8672 5.65812 18.4571L14.4581 9.65715ZM15.5895 10.0107C15.3747 9.79591 15.0265 9.79591 14.8117 10.0107L6.01168 18.8107C5.79689 19.0255 5.79689 19.3737 6.01168 19.5885C6.22647 19.8033 6.57471 19.8033 6.78949 19.5885L15.0238 11.3542C15.1214 11.2566 15.2797 11.2566 15.3774 11.3542L18.8117 14.7885C19.0265 15.0033 19.3747 15.0033 19.5895 14.7885C19.8043 14.5737 19.8043 14.2255 19.5895 14.0107L15.5895 10.0107Z" fill="#697586"/>
</svg>
