<svg width="24" height="24" viewBox="0 0 24 24" fill="none" xmlns="http://www.w3.org/2000/svg">
<path fill-rule="evenodd" clip-rule="evenodd" d="M9.75 6C9.75 5.44772 10.1977 5 10.75 5H17.5C18.0523 5 18.5 5.44772 18.5 6C18.5 6.55228 18.0523 7 17.5 7H10.75C10.1977 7 9.75 6.55228 9.75 6Z" fill="#697586"/>
<path fill-rule="evenodd" clip-rule="evenodd" d="M9.5 6C9.5 5.30964 10.0596 4.75 10.75 4.75H17.5C18.1904 4.75 18.75 5.30964 18.75 6C18.75 6.69036 18.1904 7.25 17.5 7.25H10.75C10.0596 7.25 9.5 6.69036 9.5 6ZM10.75 5.25C10.3358 5.25 10 5.58579 10 6C10 6.41421 10.3358 6.75 10.75 6.75H17.5C17.9142 6.75 18.25 6.41421 18.25 6C18.25 5.58579 17.9142 5.25 17.5 5.25H10.75Z" fill="#697586"/>
<path fill-rule="evenodd" clip-rule="evenodd" d="M6 18C6 17.4477 6.44772 17 7 17H13.75C14.3023 17 14.75 17.4477 14.75 18C14.75 18.5523 14.3023 19 13.75 19H7C6.44772 19 6 18.5523 6 18Z" fill="#697586"/>
<path fill-rule="evenodd" clip-rule="evenodd" d="M5.75 18C5.75 17.3096 6.30964 16.75 7 16.75H13.75C14.4404 16.75 15 17.3096 15 18C15 18.6904 14.4404 19.25 13.75 19.25H7C6.30964 19.25 5.75 18.6904 5.75 18ZM7 17.25C6.58579 17.25 6.25 17.5858 6.25 18C6.25 18.4142 6.58579 18.75 7 18.75H13.75C14.1642 18.75 14.5 18.4142 14.5 18C14.5 17.5858 14.1642 17.25 13.75 17.25H7Z" fill="#697586"/>
<path fill-rule="evenodd" clip-rule="evenodd" d="M14.8514 5.06394C15.3685 5.25786 15.6305 5.83427 15.4366 6.35139L10.9366 18.3514C10.7427 18.8685 10.1663 19.1305 9.64915 18.9366C9.13203 18.7427 8.87002 18.1663 9.06394 17.6491L13.5639 5.64915C13.7579 5.13203 14.3343 4.87002 14.8514 5.06394Z" fill="#697586"/>
<path fill-rule="evenodd" clip-rule="evenodd" d="M13.3299 5.56143C13.5723 4.91503 14.2928 4.58753 14.9392 4.82993C15.5856 5.07233 15.9131 5.79284 15.6707 6.43924L11.1707 18.4392C10.9283 19.0856 10.2078 19.4131 9.56137 19.1707C8.91497 18.9283 8.58747 18.2078 8.82987 17.5614L13.3299 5.56143ZM14.7636 5.29809C14.3758 5.15265 13.9435 5.34916 13.798 5.737L9.29803 17.737C9.15259 18.1248 9.34909 18.5571 9.73694 18.7026C10.1248 18.848 10.5571 18.6515 10.7025 18.2637L15.2025 6.26368C15.348 5.87584 15.1515 5.44353 14.7636 5.29809Z" fill="#697586"/>
</svg>
