<svg width="24" height="24" viewBox="0 0 24 24" fill="none" xmlns="http://www.w3.org/2000/svg">
<path fill-rule="evenodd" clip-rule="evenodd" d="M7.5 4C8.05228 4 8.5 4.44772 8.5 5V10.25C8.5 11.1783 8.86875 12.0685 9.52513 12.7249C10.1815 13.3813 11.0717 13.75 12 13.75C12.9283 13.75 13.8185 13.3813 14.4749 12.7249C15.1313 12.0685 15.5 11.1783 15.5 10.25V5C15.5 4.44772 15.9477 4 16.5 4C17.0523 4 17.5 4.44772 17.5 5V10.25C17.5 11.7087 16.9205 13.1076 15.8891 14.1391C14.8576 15.1705 13.4587 15.75 12 15.75C10.5413 15.75 9.14236 15.1705 8.11091 14.1391C7.07946 13.1076 6.5 11.7087 6.5 10.25V5C6.5 4.44772 6.94772 4 7.5 4Z" fill="#697586"/>
<path fill-rule="evenodd" clip-rule="evenodd" d="M6.25 5C6.25 4.30964 6.80964 3.75 7.5 3.75C8.19036 3.75 8.75 4.30964 8.75 5V10.25C8.75 11.112 9.09241 11.9386 9.7019 12.5481C10.3114 13.1576 11.138 13.5 12 13.5C12.862 13.5 13.6886 13.1576 14.2981 12.5481C14.9076 11.9386 15.25 11.112 15.25 10.25V5C15.25 4.30964 15.8096 3.75 16.5 3.75C17.1904 3.75 17.75 4.30964 17.75 5V10.25C17.75 11.775 17.1442 13.2375 16.0659 14.3159C14.9875 15.3942 13.525 16 12 16C10.475 16 9.01247 15.3942 7.93414 14.3159C6.8558 13.2375 6.25 11.775 6.25 10.25V5ZM7.5 4.25C7.08579 4.25 6.75 4.58579 6.75 5V10.25C6.75 11.6424 7.30312 12.9777 8.28769 13.9623C9.27226 14.9469 10.6076 15.5 12 15.5C13.3924 15.5 14.7277 14.9469 15.7123 13.9623C16.6969 12.9777 17.25 11.6424 17.25 10.25V5C17.25 4.58579 16.9142 4.25 16.5 4.25C16.0858 4.25 15.75 4.58579 15.75 5V10.25C15.75 11.2446 15.3549 12.1984 14.6517 12.9017C13.9484 13.6049 12.9946 14 12 14C11.0054 14 10.0516 13.6049 9.34835 12.9017C8.64509 12.1984 8.25 11.2446 8.25 10.25V5C8.25 4.58579 7.91421 4.25 7.5 4.25Z" fill="#697586"/>
<path fill-rule="evenodd" clip-rule="evenodd" d="M5 18.5C5 17.9477 5.44772 17.5 6 17.5H18C18.5523 17.5 19 17.9477 19 18.5C19 19.0523 18.5523 19.5 18 19.5H6C5.44772 19.5 5 19.0523 5 18.5Z" fill="#697586"/>
<path fill-rule="evenodd" clip-rule="evenodd" d="M4.75 18.5C4.75 17.8096 5.30964 17.25 6 17.25H18C18.6904 17.25 19.25 17.8096 19.25 18.5C19.25 19.1904 18.6904 19.75 18 19.75H6C5.30964 19.75 4.75 19.1904 4.75 18.5ZM6 17.75C5.58579 17.75 5.25 18.0858 5.25 18.5C5.25 18.9142 5.58579 19.25 6 19.25H18C18.4142 19.25 18.75 18.9142 18.75 18.5C18.75 18.0858 18.4142 17.75 18 17.75H6Z" fill="#697586"/>
</svg>
